<svg width="67" height="70" viewBox="0 0 67 70" fill="none" xmlns="http://www.w3.org/2000/svg">
<path d="M23.527 50.6574L21.6389 49.7535L10.4222 66.3382H22.9402L24.1464 65.5516V51.225L23.527 50.6574Z" fill="#407093"/>
<path d="M21.8095 49.8353L17.5644 47.803H16.7644L4.76062 65.5516L5.47525 66.3382H10.6483L21.8095 49.8353Z" fill="#365E7D"/>
<path d="M26.4 65.5515H9.84754C9.09559 65.5515 8.48596 66.161 8.48596 66.9131V68.6385C8.48596 69.3903 9.09545 69.9998 9.84727 69.9999H26.4C27.152 69.9999 27.7616 69.3904 27.7616 68.6385V66.9131C27.7616 66.161 27.152 65.5515 26.4 65.5515Z" fill="#4A80AA"/>
<path d="M8.76775 68.6385V66.9131C8.76775 66.1611 9.37738 65.5515 10.1293 65.5515H1.36158C0.609627 65.5515 0 66.161 0 66.9131V68.6385C0 69.3904 0.609627 69.9999 1.36158 69.9999H10.1292C9.37724 69.9999 8.76775 69.3904 8.76775 68.6385Z" fill="#407093"/>
<path d="M21.2397 39.9827C20.7302 41.0338 20.4423 42.2123 20.4423 43.459C20.4423 46.8659 22.5756 49.7721 25.5782 50.9218C26.8673 50.5179 28.0128 49.7893 28.9176 48.8301V47.0893L21.2397 39.9827Z" fill="#4A80AA"/>
<path d="M20.5767 43.4863C20.5767 42.2684 20.8583 41.1173 21.357 40.0909L18.9027 37.8192H17.9069C16.4009 39.2399 15.4595 41.2525 15.4595 43.4862C15.4595 47.7893 18.9477 51.2775 23.2508 51.2775C24.1471 51.2775 25.0067 51.1237 25.8078 50.8449C22.7628 49.7856 20.5767 46.8921 20.5767 43.4863Z" fill="#407093"/>
<path d="M65.812 0.924695C64.5791 -0.308232 62.5801 -0.308232 61.3473 0.924695L58.3345 3.93756V4.31941L62.0949 8.23954L62.7991 8.40223L65.8119 5.38937C67.0449 4.15658 67.0449 2.15762 65.812 0.924695Z" fill="#FFD086"/>
<path d="M66.6449 2.41492C66.5134 1.86915 66.238 1.35085 65.812 0.924695C64.5791 -0.308232 62.5801 -0.308232 61.3473 0.924695L58.3345 3.93756V4.31941L60.3282 6.3978C61.5169 5.16091 62.697 3.94029 63.3039 3.3334C64.3156 2.32182 65.7933 2.31403 66.6449 2.41492Z" fill="#FFC365"/>
<path d="M55.4973 8.95026C55.4627 8.95026 55.4277 8.94848 55.3926 8.94507L20.5762 5.51808C19.9955 5.46094 19.5713 4.944 19.6284 4.36336C19.6856 3.78272 20.2028 3.35875 20.7832 3.41549L55.5996 6.84234C56.1801 6.89949 56.6045 7.41642 56.5473 7.99706C56.4936 8.5427 56.0341 8.95026 55.4973 8.95026Z" fill="#365E7D"/>
<path d="M30.6459 15.4681C30.1774 15.4681 29.7493 15.1539 29.6249 14.6795C29.4769 14.1151 29.8144 13.5377 30.3787 13.3896L55.2287 6.87154C55.793 6.72374 56.3706 7.06103 56.5185 7.6254C56.6666 8.18964 56.3292 8.76714 55.7648 8.9152L30.9147 15.4333C30.8248 15.4568 30.7345 15.4681 30.6459 15.4681Z" fill="#407093"/>
<path d="M62.2464 47.1361C61.7092 47.1361 61.2497 46.7281 61.1963 46.1823L57.7906 11.3446C57.7339 10.7641 58.1585 10.2473 58.7392 10.1904C59.3198 10.1363 59.8365 10.5585 59.8932 11.1391L63.2989 45.9768C63.3556 46.5574 62.9309 47.0742 62.3503 47.131C62.3154 47.1343 62.2807 47.1361 62.2464 47.1361Z" fill="#365E7D"/>
<path d="M52.2251 37.2476C52.1356 37.2476 52.0445 37.2359 51.9537 37.212C51.3898 37.0624 51.0538 36.4841 51.2034 35.9202L57.8174 10.9741C57.9669 10.41 58.5451 10.0746 59.1092 10.2237C59.6731 10.3732 60.009 10.9516 59.8595 11.5155L53.2454 36.4616C53.1201 36.9349 52.6925 37.2476 52.2251 37.2476Z" fill="#407093"/>
<path d="M55.3068 6.96429L58.3273 3.94376L62.7913 8.40782L59.7708 11.4284L55.3068 6.96429Z" fill="#FFC365"/>
<path d="M57.6008 9.24573C58.3268 8.48557 59.4604 7.29995 60.5569 6.15999L58.3345 3.9375L55.3135 6.95843L57.6008 9.24573Z" fill="#FFA90F"/>
<path d="M60.4508 13.1519C60.1805 13.1519 59.91 13.0487 59.7039 12.8425L53.8943 7.03305C53.4817 6.62044 53.4817 5.95175 53.8943 5.53899C54.3068 5.12665 54.9756 5.12665 55.3882 5.53899L61.1978 11.3484C61.6104 11.761 61.6104 12.4297 61.1978 12.8425C60.9915 13.0488 60.7212 13.1519 60.4508 13.1519Z" fill="#4A80AA"/>
<path d="M61.1326 49.0376L25.7617 13.36C21.0723 23.9466 20.258 35.3114 23.7687 45.1115C33.4642 53.8573 47.9474 55.2003 61.2808 49.7026L61.1326 49.0376Z" fill="#B5DCFF"/>
<path d="M25.9502 13.55L17.8463 5.37573L17.0341 5.45585C11.3245 19.3031 12.9917 34.3917 22.6683 44.0684C23.2544 44.6545 23.8609 45.2107 24.4853 45.7383C20.4062 35.9498 21.0691 24.3077 25.9502 13.55Z" fill="#8BCAFF"/>
<path d="M64.365 46.5017L28.4914 10.6282C28.1384 10.6826 27.7985 10.8431 27.5267 11.1149L25.9664 12.6754C25.6313 13.0105 25.4646 13.4481 25.4598 13.8874L61.2196 49.647C61.7513 50.1787 62.6133 50.1787 63.145 49.647L64.3651 48.4271C64.8967 47.8955 64.8967 47.0334 64.365 46.5017Z" fill="#DBEDFF"/>
<path d="M26.0203 12.7021L27.5481 11.1743C27.8295 10.8929 28.1848 10.7318 28.5515 10.6882L20.2352 2.37192C19.7035 1.84022 18.8415 1.84022 18.3096 2.37192L17.0896 3.59199C16.5579 4.12369 16.5579 4.9857 17.0896 5.5174L25.5228 13.9506C25.5117 13.5 25.6764 13.0459 26.0203 12.7021Z" fill="#B5DCFF"/>
</svg>
